<svg width="24" height="18" viewBox="0 0 24 18" fill="none" xmlns="http://www.w3.org/2000/svg">
<path d="M21.4368 1.50695e-05H2.56318C1.88673 -0.00230683 1.23697 0.263773 0.756454 0.739893C0.275938 1.21601 0.00389529 1.86335 0 2.53979V15.4647C0.00418267 16.1405 0.276492 16.7871 0.757103 17.2623C1.23771 17.7374 1.88732 18.0024 2.56318 17.9989H21.4368C22.1127 18.0024 22.7623 17.7374 23.2429 17.2623C23.7235 16.7871 23.9958 16.1405 24 15.4647V2.53979C23.9961 1.86335 23.7241 1.21601 23.2435 0.739893C22.763 0.263773 22.1133 -0.00230683 21.4368 1.50695e-05ZM7.31868 11.9188L5.09635 14.1171C4.92525 14.2883 4.69328 14.3848 4.4512 14.3854C4.20731 14.3851 3.97336 14.2887 3.80005 14.1171C3.71521 14.0329 3.64786 13.9328 3.60191 13.8225C3.55596 13.7122 3.53231 13.5939 3.53231 13.4744C3.53231 13.3549 3.55596 13.2366 3.60191 13.1263C3.64786 13.016 3.71521 12.9159 3.80005 12.8317L6.02181 10.6328C6.19506 10.4633 6.42784 10.3684 6.67025 10.3684C6.91266 10.3684 7.14542 10.4633 7.31868 10.6328C7.40359 10.717 7.47099 10.8171 7.51699 10.9275C7.56299 11.0379 7.58668 11.1562 7.58668 11.2758C7.58668 11.3954 7.56299 11.5137 7.51699 11.6241C7.47099 11.7345 7.40359 11.8346 7.31868 11.9188ZM11.9318 10.5199C11.2195 10.5203 10.5282 10.2786 9.97128 9.83445L4.08908 5.09641C3.99545 5.02208 3.91759 4.92981 3.86008 4.825C3.80257 4.72019 3.76657 4.60492 3.75418 4.48602C3.74179 4.36711 3.75326 4.24694 3.78791 4.13252C3.82257 4.0181 3.87971 3.91174 3.95601 3.8197C4.10955 3.63204 4.33118 3.51287 4.57239 3.48824C4.81361 3.46361 5.05475 3.53554 5.24305 3.68829L11.1252 8.4214C11.3542 8.60451 11.6387 8.70427 11.9318 8.70427C12.225 8.70427 12.5095 8.60451 12.7384 8.4214L18.9456 3.42486C19.1353 3.27409 19.3766 3.20393 19.6175 3.22954C19.8584 3.25515 20.0796 3.37446 20.2332 3.56173C20.3093 3.65387 20.3663 3.76023 20.4008 3.87462C20.4354 3.98901 20.4468 4.10914 20.4344 4.22798C20.422 4.34683 20.386 4.46203 20.3287 4.56683C20.2713 4.67164 20.1936 4.76398 20.1002 4.83845L13.8924 9.83499C13.3353 10.2791 12.6437 10.5206 11.9313 10.5199H11.9318ZM20.3658 14.2829C20.1925 14.4523 19.9599 14.5471 19.7176 14.5471C19.4753 14.5471 19.2427 14.4523 19.0694 14.2829L16.683 11.9166C16.598 11.8325 16.5306 11.7324 16.4845 11.6221C16.4385 11.5118 16.4148 11.3934 16.4148 11.2739C16.4148 11.1543 16.4385 11.036 16.4845 10.9257C16.5306 10.8154 16.598 10.7153 16.683 10.6312C16.8558 10.461 17.0886 10.3657 17.3311 10.3657C17.5737 10.3657 17.8065 10.461 17.9793 10.6312L20.3658 12.9975C20.4511 13.0816 20.5189 13.1819 20.5651 13.2925C20.6113 13.4031 20.6351 13.5218 20.635 13.6417C20.635 13.7616 20.6111 13.8802 20.5648 13.9907C20.5185 14.1013 20.4506 14.2015 20.3652 14.2856L20.3658 14.2829Z" fill="#D9D9D9"/>
</svg>
