<svg width="19" height="21" viewBox="0 0 19 21" fill="none" xmlns="http://www.w3.org/2000/svg">
<path d="M17.841 16.8452C17.388 16.4712 16.9162 16.1208 16.4273 15.7951C15.3859 15.1159 14.3301 14.4587 13.2189 13.7581C13.1836 13.7359 13.1434 13.7227 13.1018 13.7196C13.0602 13.7165 13.0184 13.7237 12.9802 13.7404C12.942 13.7572 12.9085 13.783 12.8825 13.8157C12.8566 13.8484 12.839 13.8869 12.8314 13.928C12.4018 16.2366 11.9923 18.4489 11.578 20.6792C11.5712 20.7161 11.5726 20.754 11.5821 20.7902C11.5916 20.8265 11.609 20.8602 11.6329 20.889C11.6569 20.9179 11.6868 20.9411 11.7207 20.957C11.7546 20.973 11.7916 20.9813 11.8291 20.9814H17.4215C17.5771 20.9814 17.7311 20.9506 17.8748 20.891C18.0185 20.8313 18.149 20.7439 18.2588 20.6337C18.3686 20.5236 18.4557 20.3928 18.5149 20.2489C18.574 20.105 18.6042 19.9509 18.6037 19.7953C18.6037 19.3462 18.6037 18.9018 18.6133 18.4589C18.6246 18.1475 18.5603 17.838 18.4258 17.557C18.2913 17.2759 18.0906 17.0317 17.841 16.8452Z" fill="#68768C"/>
<path d="M0.536006 17.0227C0.269656 17.241 0.091553 17.5484 0.034829 17.8881C-0.00335415 18.5324 -0.00288479 19.1768 0.00284268 19.8278C0.00548631 20.1396 0.131225 20.4377 0.352653 20.6573C0.574081 20.8768 0.87329 21 1.18511 21H6.7121C6.7495 21 6.78649 20.9917 6.82035 20.9758C6.85422 20.96 6.88415 20.9369 6.9081 20.9081C6.93204 20.8794 6.94939 20.8458 6.9589 20.8096C6.96842 20.7734 6.96987 20.7356 6.96316 20.6988C6.55221 18.4422 6.14703 16.2195 5.73608 13.9643C5.72891 13.9245 5.71244 13.8871 5.68801 13.8549C5.66359 13.8228 5.63185 13.7969 5.59549 13.7793C5.55914 13.7618 5.51915 13.7531 5.47879 13.754C5.43843 13.7548 5.39888 13.7652 5.36332 13.7843C3.64575 14.6926 2.02784 15.778 0.536006 17.0227Z" fill="#68768C"/>
<path d="M9.78873 14.4625L11.7609 12.9419C11.8753 12.8526 11.9678 12.7384 12.0312 12.6078C12.0946 12.4772 12.1272 12.3339 12.1265 12.1887C12.1265 11.0499 12.1222 10.7831 12.1399 10.6318C12.1494 10.5555 12.1637 10.5072 12.1852 10.3884L12.7546 9.37035C13.3875 9.54981 13.3488 8.76753 13.503 7.48982C13.5607 7.00156 13.5077 6.8555 13.335 6.76911L13.3035 6.70849C13.4252 6.19254 14.0939 4.87523 13.9383 3.67675C13.8815 3.2448 13.7022 2.83815 13.4217 2.50483C13.1411 2.1715 12.771 1.92546 12.3551 1.79577C11.7084 0.262237 9.98155 -0.0122005 8.85419 0.21833C8.15449 0.361517 6.3976 0.112371 5.69169 0.00211678C5.65681 -0.0029027 5.6212 0.0010405 5.58827 0.0135654C5.55534 0.0260904 5.52616 0.046767 5.50344 0.0736927C5.48071 0.100618 5.46521 0.132898 5.4584 0.167467C5.45159 0.202035 5.45365 0.237756 5.46446 0.271291C5.54229 0.521403 5.63409 0.766963 5.7394 1.0068C5.75961 1.05468 5.76209 1.1082 5.74634 1.15773C5.73059 1.20726 5.69762 1.24953 5.65346 1.27694C4.5557 1.97998 4.04692 3.73164 5.21533 6.45219L5.01298 6.73142C4.77147 6.81924 4.69174 6.92853 4.75808 7.48886C4.91797 8.82957 4.87457 9.52403 5.50746 9.36938L5.71983 9.47679C5.75897 9.8723 5.89379 10.2523 6.11263 10.5841C6.14828 10.6391 6.18665 10.6923 6.22765 10.7435V12.046C6.2272 12.1907 6.25991 12.3335 6.3232 12.4635C6.38649 12.5936 6.47868 12.7074 6.59278 12.7963L8.75252 14.4611C8.81332 14.5091 8.85371 14.5783 8.8655 14.6548C8.87728 14.7313 8.8596 14.8095 8.81603 14.8735L8.18405 15.8004C8.13249 15.877 8.1021 15.966 8.0959 16.0582C8.0897 16.1503 8.10792 16.2425 8.14875 16.3254L8.51341 17.0609C8.5739 17.1837 8.59619 17.3219 8.57739 17.4575L8.09532 20.9728H10.4512L9.96725 17.4575C9.94856 17.3218 9.97101 17.1837 10.0317 17.0609L10.3968 16.3254C10.4376 16.2425 10.4557 16.1503 10.4494 16.0581C10.4431 15.9659 10.4126 15.877 10.361 15.8004L9.72907 14.8735C9.6855 14.81 9.66744 14.7325 9.6785 14.6563C9.68955 14.5802 9.72892 14.511 9.78873 14.4625Z" fill="#68768C"/>
</svg>
